<svg width="668" height="75" viewBox="0 0 668 75" fill="none" xmlns="http://www.w3.org/2000/svg">
<path d="M48.3369 75H26.9492V21.3887H0V0H75.2861V21.3887H48.3369V75Z" fill="#2D2D2D"/>
<path d="M156.048 75H134.66V48.3379H102.149V75H80.7615V0H102.149V26.9492H134.66V0H156.048V75Z" fill="#2D2D2D"/>
<path d="M236.809 53.8984V75H161.523V0H236.809V21.3887H182.911V26.9492H236.809V48.3379H182.911V53.8984H236.809Z" fill="#2D2D2D"/>
<path d="M344.949 75H323.56V48.3379H291.05V75H269.662V0H291.05V26.9492H323.56V0H344.949V75Z" fill="#2D2D2D"/>
<path fill-rule="evenodd" clip-rule="evenodd" d="M425.711 75H350.424V0H425.711V75ZM404.323 53.8984V21.3887H371.813V53.8984H404.323Z" fill="#2D2D2D"/>
<path d="M485.085 53.8984V48.3379H431.187V0H506.474V21.3887H452.575V26.9492H506.474V75H431.187V53.8984H485.085Z" fill="#2D2D2D"/>
<path d="M560.287 75H538.898V21.3887H511.949V0H587.236V21.3887H560.287V75Z" fill="#2D2D2D"/>
<path d="M646.611 53.8984V48.3379H592.712V0H667.999V21.3887H614.1V26.9492H667.999V75H592.712V53.8984H646.611Z" fill="#2D2D2D"/>
</svg>