<svg width="668" height="75" viewBox="0 0 668 75" fill="none" xmlns="http://www.w3.org/2000/svg">
<path d="M53.9405 53.9396V48.3747H0V0H75.345V21.4044H21.4054V26.9693H75.345V75H0V53.9396H53.9405Z" fill="#2D2D2D"/>
<path d="M134.764 53.9396V0H156.169V75H80.8246V0H102.229V53.9396H134.764Z" fill="#2D2D2D"/>
<path fill-rule="evenodd" clip-rule="evenodd" d="M236.992 75H161.648V0H236.992V75ZM215.588 53.9396V48.3747H183.053V53.9396H215.588ZM183.053 21.4044V26.9693H215.588V21.4044H183.053Z" fill="#2D2D2D"/>
<path d="M296.411 53.9396V48.3747H242.472V0H317.817V21.4044H263.876V26.9693H317.817V75H242.472V53.9396H296.411Z" fill="#2D2D2D"/>
<path d="M398.641 53.9396V75H323.296V0H398.641V21.4044H344.701V53.9396H398.641Z" fill="#2D2D2D"/>
<path fill-rule="evenodd" clip-rule="evenodd" d="M479.466 48.3747H452.496V53.9396H479.466V75H431.091V48.3747H425.525V75H404.121V0H479.466V48.3747ZM425.525 21.4044V26.9693H458.06V21.4044H425.525Z" fill="#2D2D2D"/>
<path d="M506.351 75H484.945V0H506.351V75Z" fill="#2D2D2D"/>
<path fill-rule="evenodd" clip-rule="evenodd" d="M587.175 75H511.83V0H587.175V75ZM565.771 53.9396V48.3747H533.236V53.9396H565.771ZM533.236 21.4044V26.9693H565.771V21.4044H533.236Z" fill="#2D2D2D"/>
<path d="M668 53.9396V75H592.655V0H668V21.4044H614.06V26.9693H668V48.3747H614.06V53.9396H668Z" fill="#2D2D2D"/>
</svg>